<svg xmlns="http://www.w3.org/2000/svg" width="1000" height="540" viewBox="0 0 1000 540" fill="none"><style>text{font-family:'Segoe UI',Inter,'Helvetica Neue',Arial,sans-serif}.m{font-family:'JetBrains Mono','SFMono-Regular',Consolas,Menlo,monospace}</style><defs><linearGradient id="brand" x1="0" y1="0" x2="1" y2="0"><stop offset="0" stop-color="#8B5CF6"/><stop offset=".5" stop-color="#22D3EE"/><stop offset="1" stop-color="#F472B6"/></linearGradient><filter id="glow" x="-50%" y="-50%" width="200%" height="200%"><feGaussianBlur stdDeviation="4" result="b"/><feMerge><feMergeNode in="b"/><feMergeNode in="SourceGraphic"/></feMerge></filter><pattern id="dots" width="22" height="22" patternUnits="userSpaceOnUse"><circle cx="2" cy="2" r="1" fill="#1E293B"/></pattern></defs><rect x="1" y="1" width="998" height="538" rx="18" fill="#0D1320" stroke="#1E293B"/><rect x="1" y="1" width="998" height="538" rx="18" fill="url(#dots)" opacity=".5"/><circle cx="26" cy="26" r="5.5" fill="#FF5F57"/><circle cx="44" cy="26" r="5.5" fill="#FEBC2E"/><circle cx="62" cy="26" r="5.5" fill="#28C840"/><text x="92" y="30.5" class="m" font-size="12" fill="#8B98A9">stack.orbit() — gravity: Claude</text><circle cx="500" cy="280" r="95" stroke="#8B5CF6" stroke-opacity=".25" stroke-dasharray="2 6"/><g><animateTransform attributeName="transform" type="rotate" from="0 500 280" to="360 500 280" dur="34s" repeatCount="indefinite"/><g transform="translate(595.0 280.0)"><g><animateTransform attributeName="transform" type="rotate" from="0" to="-360" dur="34s" repeatCount="indefinite"/><rect x="-34.8" y="-14" width="69.6" height="28" rx="14" fill="#0D1320" stroke="#8B5CF6"/><text x="0" y="4.5" text-anchor="middle" class="m" font-size="12.5" fill="#E6EDF3">Python</text></g></g><g transform="translate(452.5 362.3)"><g><animateTransform attributeName="transform" type="rotate" from="0" to="-360" dur="34s" repeatCount="indefinite"/><rect x="-23.4" y="-14" width="46.8" height="28" rx="14" fill="#0D1320" stroke="#8B5CF6"/><text x="0" y="4.5" text-anchor="middle" class="m" font-size="12.5" fill="#E6EDF3">MCP</text></g></g><g transform="translate(452.5 197.7)"><g><animateTransform attributeName="transform" type="rotate" from="0" to="-360" dur="34s" repeatCount="indefinite"/><rect x="-53.8" y="-14" width="107.6" height="28" rx="14" fill="#0D1320" stroke="#8B5CF6"/><text x="0" y="4.5" text-anchor="middle" class="m" font-size="12.5" fill="#E6EDF3">Multi-Agent</text></g></g></g><circle cx="500" cy="280" r="168" stroke="#22D3EE" stroke-opacity=".25" stroke-dasharray="2 6"/><g><animateTransform attributeName="transform" type="rotate" from="360 500 280" to="0 500 280" dur="52s" repeatCount="indefinite"/><g transform="translate(668.0 280.0)"><g><animateTransform attributeName="transform" type="rotate" from="-360" to="0" dur="52s" repeatCount="indefinite"/><rect x="-50.0" y="-14" width="100.0" height="28" rx="14" fill="#0D1320" stroke="#22D3EE"/><text x="0" y="4.5" text-anchor="middle" class="m" font-size="12.5" fill="#E6EDF3">TypeScript</text></g></g><g transform="translate(551.9 439.8)"><g><animateTransform attributeName="transform" type="rotate" from="-360" to="0" dur="52s" repeatCount="indefinite"/><rect x="-31.0" y="-14" width="62.0" height="28" rx="14" fill="#0D1320" stroke="#22D3EE"/><text x="0" y="4.5" text-anchor="middle" class="m" font-size="12.5" fill="#E6EDF3">React</text></g></g><g transform="translate(364.1 378.7)"><g><animateTransform attributeName="transform" type="rotate" from="-360" to="0" dur="52s" repeatCount="indefinite"/><rect x="-27.2" y="-14" width="54.4" height="28" rx="14" fill="#0D1320" stroke="#22D3EE"/><text x="0" y="4.5" text-anchor="middle" class="m" font-size="12.5" fill="#E6EDF3">Vite</text></g></g><g transform="translate(364.1 181.3)"><g><animateTransform attributeName="transform" type="rotate" from="-360" to="0" dur="52s" repeatCount="indefinite"/><rect x="-38.6" y="-14" width="77.2" height="28" rx="14" fill="#0D1320" stroke="#22D3EE"/><text x="0" y="4.5" text-anchor="middle" class="m" font-size="12.5" fill="#E6EDF3">Flutter</text></g></g><g transform="translate(551.9 120.2)"><g><animateTransform attributeName="transform" type="rotate" from="-360" to="0" dur="52s" repeatCount="indefinite"/><rect x="-27.2" y="-14" width="54.4" height="28" rx="14" fill="#0D1320" stroke="#22D3EE"/><text x="0" y="4.5" text-anchor="middle" class="m" font-size="12.5" fill="#E6EDF3">Dart</text></g></g></g><circle cx="500" cy="280" r="240" stroke="#F472B6" stroke-opacity=".25" stroke-dasharray="2 6"/><g><animateTransform attributeName="transform" type="rotate" from="0 500 280" to="360 500 280" dur="70s" repeatCount="indefinite"/><g transform="translate(740.0 280.0)"><g><animateTransform attributeName="transform" type="rotate" from="0" to="-360" dur="70s" repeatCount="indefinite"/><rect x="-50.0" y="-14" width="100.0" height="28" rx="14" fill="#0D1320" stroke="#F472B6"/><text x="0" y="4.5" text-anchor="middle" class="m" font-size="12.5" fill="#E6EDF3">SQL Server</text></g></g><g transform="translate(649.6 467.6)"><g><animateTransform attributeName="transform" type="rotate" from="0" to="-360" dur="70s" repeatCount="indefinite"/><rect x="-34.8" y="-14" width="69.6" height="28" rx="14" fill="#0D1320" stroke="#F472B6"/><text x="0" y="4.5" text-anchor="middle" class="m" font-size="12.5" fill="#E6EDF3">SQLite</text></g></g><g transform="translate(446.6 514.0)"><g><animateTransform attributeName="transform" type="rotate" from="0" to="-360" dur="70s" repeatCount="indefinite"/><rect x="-50.0" y="-14" width="100.0" height="28" rx="14" fill="#0D1320" stroke="#F472B6"/><text x="0" y="4.5" text-anchor="middle" class="m" font-size="12.5" fill="#E6EDF3">PostgreSQL</text></g></g><g transform="translate(283.8 384.1)"><g><animateTransform attributeName="transform" type="rotate" from="0" to="-360" dur="70s" repeatCount="indefinite"/><rect x="-38.6" y="-14" width="77.2" height="28" rx="14" fill="#0D1320" stroke="#F472B6"/><text x="0" y="4.5" text-anchor="middle" class="m" font-size="12.5" fill="#E6EDF3">MongoDB</text></g></g><g transform="translate(283.8 175.9)"><g><animateTransform attributeName="transform" type="rotate" from="0" to="-360" dur="70s" repeatCount="indefinite"/><rect x="-38.6" y="-14" width="77.2" height="28" rx="14" fill="#0D1320" stroke="#F472B6"/><text x="0" y="4.5" text-anchor="middle" class="m" font-size="12.5" fill="#E6EDF3">Node.js</text></g></g><g transform="translate(446.6 46.0)"><g><animateTransform attributeName="transform" type="rotate" from="0" to="-360" dur="70s" repeatCount="indefinite"/><rect x="-65.2" y="-14" width="130.4" height="28" rx="14" fill="#0D1320" stroke="#F472B6"/><text x="0" y="4.5" text-anchor="middle" class="m" font-size="12.5" fill="#E6EDF3">GitHub Actions</text></g></g><g transform="translate(649.6 92.4)"><g><animateTransform attributeName="transform" type="rotate" from="0" to="-360" dur="70s" repeatCount="indefinite"/><rect x="-34.8" y="-14" width="69.6" height="28" rx="14" fill="#0D1320" stroke="#F472B6"/><text x="0" y="4.5" text-anchor="middle" class="m" font-size="12.5" fill="#E6EDF3">rdflib</text></g></g></g><circle cx="500" cy="280" r="40" fill="#D97757" fill-opacity=".18" stroke="#D97757" filter="url(#glow)"><animate attributeName="r" values="38;44;38" dur="4s" repeatCount="indefinite"/></circle><text x="500" y="286" text-anchor="middle" font-size="17" font-weight="800" fill="#F0A58A">Claude</text><circle cx="44" cy="460" r="5" fill="#8B5CF6"/><text x="58" y="464.5" class="m" font-size="12" fill="#8B98A9">inner · AI core</text><circle cx="44" cy="484" r="5" fill="#22D3EE"/><text x="58" y="488.5" class="m" font-size="12" fill="#8B98A9">middle · apps &amp; UI</text><circle cx="44" cy="508" r="5" fill="#F472B6"/><text x="58" y="512.5" class="m" font-size="12" fill="#8B98A9">outer · data &amp; infra</text></svg>